<svg xmlns="http://www.w3.org/2000/svg" viewBox="0 0 1052.563 569.836"><title>stacketChart-v2</title><g id="Capa_2" data-name="Capa 2"><g id="Capa_1-2" data-name="Capa 1"><rect y="12.33" width="1052.563" height="557.506" style="fill:#fff"/><text transform="translate(76.659 59.279)" style="font-size:11px;fill:#6f6f6f;font-family:SourceSansPro-Regular, Source Sans Pro">10,000</text><text transform="translate(101.266 500.279)" style="font-size:11px;fill:#6f6f6f;font-family:SourceSansPro-Regular, Source Sans Pro">0</text><text transform="translate(82.126 366.779)" style="font-size:11px;fill:#6f6f6f;font-family:SourceSansPro-Regular, Source Sans Pro">3,000</text><text transform="translate(82.126 106.035)" style="font-size:11px;fill:#6f6f6f;font-family:SourceSansPro-Regular, Source Sans Pro">9,000</text><text transform="translate(82.126 148.535)" style="font-size:11px;fill:#6f6f6f;font-family:SourceSansPro-Regular, Source Sans Pro">8,000</text><text transform="translate(82.126 192.535)" style="font-size:11px;fill:#6f6f6f;font-family:SourceSansPro-Regular, Source Sans Pro">7,000</text><text transform="translate(82.126 235.535)" style="font-size:11px;fill:#6f6f6f;font-family:SourceSansPro-Regular, Source Sans Pro">6,000</text><text transform="translate(82.126 279.279)" style="font-size:11px;fill:#6f6f6f;font-family:SourceSansPro-Regular, Source Sans Pro">5,000</text><text transform="translate(82.126 325.779)" style="font-size:11px;fill:#6f6f6f;font-family:SourceSansPro-Regular, Source Sans Pro">4,000</text><text transform="translate(82.126 415.779)" style="font-size:11px;fill:#6f6f6f;font-family:SourceSansPro-Regular, Source Sans Pro">2,000</text><text transform="translate(82.126 456.279)" style="font-size:11px;fill:#6f6f6f;font-family:SourceSansPro-Regular, Source Sans Pro">1,000</text><text transform="translate(38.875 360.429) rotate(-90)" style="font-size:18px;fill:#111;font-family:SourceSansPro-Bold, Source Sans Pro;font-weight:700"><tspan style="letter-spacing:-0.039984809027777776em">A</tspan><tspan x="9.594" y="0">TFM delay per flight</tspan></text><text transform="translate(59.226 334.989) rotate(-90)" style="font-size:16px;fill:#6f6f6f;font-family:SourceSansPro-Regular, Source Sans Pro">Minu<tspan x="33.023" y="0" style="letter-spacing:-0.010009765625em">t</tspan><tspan x="38.271" y="0">es per flight</tspan></text><line x1="113.5" y1="58.297" x2="1033.5" y2="58.297" style="fill:none;stroke:#d3d3d3;stroke-miterlimit:10"/><line x1="113.5" y1="102.147" x2="1033.5" y2="102.147" style="fill:none;stroke:#d3d3d3;stroke-miterlimit:10"/><line x1="113.5" y1="189.847" x2="1033.5" y2="189.847" style="fill:none;stroke:#d3d3d3;stroke-miterlimit:10"/><line x1="113.5" y1="277.547" x2="1033.5" y2="277.547" style="fill:none;stroke:#d3d3d3;stroke-miterlimit:10"/><line x1="114.5" y1="145.997" x2="1033.5" y2="145.997" style="fill:none;stroke:#d3d3d3;stroke-miterlimit:10"/><line x1="113.5" y1="233.697" x2="1033.5" y2="233.697" style="fill:none;stroke:#d3d3d3;stroke-miterlimit:10"/><line x1="113.5" y1="321.397" x2="1033.5" y2="321.397" style="fill:none;stroke:#d3d3d3;stroke-miterlimit:10"/><line x1="113.5" y1="365.247" x2="1033.5" y2="365.247" style="fill:none;stroke:#d3d3d3;stroke-miterlimit:10"/><line x1="113.5" y1="409.097" x2="1033.5" y2="409.097" style="fill:none;stroke:#d3d3d3;stroke-miterlimit:10"/><line x1="113.5" y1="452.947" x2="1033.5" y2="452.947" style="fill:none;stroke:#d3d3d3;stroke-miterlimit:10"/><line x1="113.5" y1="496.797" x2="1033.5" y2="496.797" style="fill:none;stroke:#d3d3d3;stroke-miterlimit:10"/><text transform="translate(561.3 550.279)" style="font-size:14px;fill:#6f6f6f;font-family:SourceSansPro-Bold, Source Sans Pro;font-weight:700">LE - S<tspan x="33.179" y="0" style="letter-spacing:-0.010986328125em">p</tspan><tspan x="41.047" y="0">ain</tspan></text><text transform="translate(246.405 550.279)" style="font-size:14px;fill:#6f6f6f;font-family:SourceSansPro-Bold, Source Sans Pro;font-weight:700">LF - <tspan x="25.059" y="0" style="letter-spacing:-0.019984654017857144em">F</tspan><tspan x="32.115" y="0" style="letter-spacing:-0.028982979910714284em">r</tspan><tspan x="37.281" y="0">an</tspan><tspan x="52.765" y="0" style="letter-spacing:-0.028006417410714284em">c</tspan><tspan x="58.911" y="0">e</tspan></text><text transform="translate(848.861 550.279)" style="font-size:14px;fill:#6f6f6f;font-family:SourceSansPro-Bold, Source Sans Pro;font-weight:700">LP - <tspan x="26.208" y="0" style="letter-spacing:-0.021030970982142856em">P</tspan><tspan x="34.397" y="0">ortu</tspan><tspan x="61.053" y="0" style="letter-spacing:-0.019008091517857144em">g</tspan><tspan x="68.263" y="0">al</tspan></text><text transform="translate(93.342 11.849)" style="font-size:14px;fill:#111;font-family:SourceSansPro-Regular, Source Sans Pro">Disruptions (non-<tspan x="101.778" y="0" style="letter-spacing:-0.040004185267857144em">A</tspan><tspan x="108.834" y="0" style="letter-spacing:-0.023960658482142856em">T</tspan><tspan x="116.002" y="0" style="letter-spacing:-0.00003487723214285714em">C)</tspan></text><circle cx="80.95" cy="8.299" r="7.931" style="fill:#1678b6"/><text transform="translate(262.098 11.849)" style="font-size:14px;fill:#111;font-family:SourceSansPro-Regular, Source Sans Pro">Ca<tspan x="15.162" y="0" style="letter-spacing:-0.014020647321428572em">p</tspan><tspan x="22.736" y="0">acity (</tspan><tspan x="58.071" y="0" style="letter-spacing:-0.03996930803571429em">A</tspan><tspan x="65.127" y="0" style="letter-spacing:-0.023995535714285716em">T</tspan><tspan x="72.295" y="0">C)</tspan></text><circle cx="249.706" cy="8.299" r="7.931" style="fill:#f27f30"/><text transform="translate(392.75 11.849)" style="font-size:14px;fill:#111;font-family:SourceSansPro-Regular, Source Sans Pro">W<tspan x="11.004" y="0" style="letter-spacing:-0.013985770089285714em">e</tspan><tspan x="17.752" y="0">ather</tspan></text><circle cx="379.358" cy="8.299" r="7.931" style="fill:#22a24e"/><text transform="translate(503.474 11.849)" style="font-size:14px;fill:#111;font-family:SourceSansPro-Regular, Source Sans Pro">Ca<tspan x="15.162" y="0" style="letter-spacing:-0.014020647321428572em">p</tspan><tspan x="22.736" y="0">acity (non-</tspan><tspan x="85.329" y="0" style="letter-spacing:-0.040004185267857144em">A</tspan><tspan x="92.385" y="0" style="letter-spacing:-0.023960658482142856em">T</tspan><tspan x="99.553" y="0" style="letter-spacing:-0.00003487723214285714em">C)</tspan></text><circle cx="491.082" cy="8.299" r="7.931" style="fill:#d7292e"/><text transform="translate(989.938 11.849)" style="font-size:14px;fill:#111;font-family:SourceSansPro-Regular, Source Sans Pro">E<tspan x="7.378" y="0" style="letter-spacing:-0.004010881696428571em">v</tspan><tspan x="13.86" y="0">ents</tspan></text><circle cx="977.546" cy="8.299" r="7.931" style="fill:#9268aa"/><text transform="translate(837.795 11.849)" style="font-size:14px;fill:#111;font-family:SourceSansPro-Regular, Source Sans Pro">S<tspan x="7.476" y="0" style="letter-spacing:-0.017996651785714284em">t</tspan><tspan x="11.956" y="0">affing (</tspan><tspan x="52.387" y="0" style="letter-spacing:-0.03996930803571429em">A</tspan><tspan x="59.443" y="0" style="letter-spacing:-0.023995535714285716em">T</tspan><tspan x="66.611" y="0">C)</tspan></text><circle cx="825.403" cy="8.299" r="7.931" style="fill:#8e574b"/><text transform="matrix(1, 0.005, -0.005, 1, 672.384, 11.62)" style="font-size:14px;fill:#111;font-family:SourceSansPro-Regular, Source Sans Pro">Disruptions (<tspan x="74.521" y="0" style="letter-spacing:-0.03996930803571429em">A</tspan><tspan x="81.577" y="0" style="letter-spacing:-0.023995535714285716em">T</tspan><tspan x="88.745" y="0">C)</tspan></text><circle cx="659.94" cy="8.299" r="7.931" style="fill:#d67ab0"/><rect x="535.033" y="354.835" width="52.858" height="59.636" style="fill:#22a24e"/><rect x="535.033" y="350.418" width="52.858" height="4.417" style="fill:#d7292e"/><rect x="535.033" y="301.826" width="52.858" height="48.592" style="fill:#9268aa"/><rect x="535.033" y="239.981" width="52.858" height="61.844" style="fill:#8e574b"/><rect x="535.033" y="431.699" width="52.858" height="64.937" style="fill:#1678b6"/><rect x="535.033" y="414.912" width="52.858" height="16.786" style="fill:#f27f30"/><rect x="535.033" y="166.805" width="52.858" height="73.176" style="fill:#d67ab0"/><rect x="593.01" y="290.386" width="52.858" height="55.657" style="fill:#22a24e"/><rect x="593.01" y="228.054" width="52.858" height="62.332" style="fill:#d7292e"/><rect x="593.01" y="205.56" width="52.858" height="22.494" style="fill:#9268aa"/><rect x="593.01" y="165.36" width="52.858" height="40.2" style="fill:#8e574b"/><rect x="593.01" y="413.425" width="52.858" height="83.21" style="fill:#1678b6"/><rect x="593.01" y="346.485" width="52.858" height="66.94" style="fill:#f27f30"/><rect x="593.01" y="105.376" width="52.858" height="59.984" style="fill:#d67ab0"/><rect x="824.951" y="349.509" width="52.858" height="16.59" style="fill:#22a24e"/><rect x="824.951" y="263.264" width="52.858" height="86.245" style="fill:#d7292e"/><rect x="824.951" y="220.066" width="52.858" height="43.198" style="fill:#9268aa"/><rect x="824.951" y="202.182" width="52.858" height="17.884" style="fill:#8e574b"/><rect x="824.951" y="437.65" width="52.858" height="58.986" style="fill:#1678b6"/><rect x="824.951" y="366.541" width="52.858" height="71.109" style="fill:#f27f30"/><rect x="824.951" y="172.376" width="52.858" height="29.806" style="fill:#d67ab0"/><rect x="883.748" y="338.626" width="52.858" height="26.389" style="fill:#22a24e"/><rect x="883.748" y="271.415" width="52.858" height="67.211" style="fill:#d7292e"/><rect x="883.748" y="234.43" width="52.858" height="36.986" style="fill:#9268aa"/><rect x="883.748" y="182.253" width="52.858" height="52.177" style="fill:#8e574b"/><rect x="883.748" y="436.565" width="52.858" height="60.07" style="fill:#1678b6"/><rect x="883.748" y="365.456" width="52.858" height="71.109" style="fill:#f27f30"/><rect x="883.748" y="110.666" width="52.858" height="71.587" style="fill:#d67ab0"/><rect x="222.993" y="308.273" width="52.858" height="56.742" style="fill:#22a24e"/><rect x="222.993" y="288.489" width="52.858" height="19.784" style="fill:#d7292e"/><rect x="222.993" y="231.035" width="52.858" height="57.454" style="fill:#9268aa"/><rect x="222.993" y="203.663" width="52.858" height="27.372" style="fill:#8e574b"/><rect x="222.993" y="408.276" width="52.858" height="88.359" style="fill:#1678b6"/><rect x="222.993" y="365.456" width="52.858" height="42.819" style="fill:#f27f30"/><rect x="222.993" y="148.376" width="52.858" height="55.286" style="fill:#d67ab0"/><rect x="279.764" y="342.74" width="52.858" height="63.001" style="fill:#22a24e"/><rect x="279.764" y="285.955" width="52.858" height="56.785" style="fill:#d7292e"/><rect x="279.764" y="231.035" width="52.858" height="54.92" style="fill:#9268aa"/><rect x="279.764" y="209.589" width="52.858" height="21.446" style="fill:#8e574b"/><rect x="279.764" y="482.156" width="52.858" height="14.479" style="fill:#1678b6"/><rect x="279.764" y="406.182" width="52.858" height="75.974" style="fill:#f27f30"/><rect x="279.764" y="171.602" width="52.858" height="37.987" style="fill:#d67ab0"/><text transform="translate(534.799 512.6)" style="font-size:12px;fill:#6f6f6f;font-family:SourceSansPro-Regular, Source Sans Pro">Jan 2016 - <tspan x="4.122" y="15">Dec 2016</tspan></text><text transform="translate(597.182 512.6)" style="font-size:12px;fill:#6f6f6f;font-family:SourceSansPro-Regular, Source Sans Pro">Jan 2017 - <tspan x="4.122" y="15">Dec 2017</tspan></text><text transform="translate(231.277 512.6)" style="font-size:12px;fill:#6f6f6f;font-family:SourceSansPro-Regular, Source Sans Pro">Jan 2016 - <tspan x="4.122" y="15">Dec 2016</tspan></text><text transform="translate(284.788 512.6)" style="font-size:12px;fill:#6f6f6f;font-family:SourceSansPro-Regular, Source Sans Pro">Jan 2017 - <tspan x="4.122" y="15">Dec 2017</tspan></text><text transform="translate(828.714 512.6)" style="font-size:12px;fill:#6f6f6f;font-family:SourceSansPro-Regular, Source Sans Pro">Jan 2016 - <tspan x="4.122" y="15">Dec 2016</tspan></text><text transform="translate(887.512 512.6)" style="font-size:12px;fill:#6f6f6f;font-family:SourceSansPro-Regular, Source Sans Pro">Jan 2017 - <tspan x="4.122" y="15">Dec 2017</tspan></text><line x1="141.833" y1="496.55" x2="141.833" y2="506.877" style="fill:none;stroke:#d3d3d3;stroke-miterlimit:10"/><line x1="439.055" y1="496.55" x2="439.055" y2="506.877" style="fill:none;stroke:#d3d3d3;stroke-miterlimit:10"/><line x1="736.278" y1="496.55" x2="736.278" y2="506.877" style="fill:none;stroke:#d3d3d3;stroke-miterlimit:10"/><line x1="1033.5" y1="496.55" x2="1033.5" y2="506.877" style="fill:none;stroke:#d3d3d3;stroke-miterlimit:10"/></g></g></svg>