<svg xmlns="http://www.w3.org/2000/svg" viewBox="0 0 894 557.506"><title>StackedChart</title><g id="Capa_2" data-name="Capa 2"><g id="Capa_1-2" data-name="Capa 1"><rect width="894" height="557.506" style="fill:#fff"/><text transform="translate(75.159 37.95)" style="font-size:11px;fill:#6f6f6f; font-family: 'Source Sans Pro', sans-serif">10,000</text><text transform="translate(99.766 478.95)" style="font-size:11px;fill:#6f6f6f; font-family: 'Source Sans Pro', sans-serif">0</text><text transform="translate(80.626 345.45)" style="font-size:11px;fill:#6f6f6f; font-family: 'Source Sans Pro', sans-serif">3,000</text><text transform="translate(80.626 84.705)" style="font-size:11px;fill:#6f6f6f; font-family: 'Source Sans Pro', sans-serif">9,000</text><text transform="translate(80.626 127.205)" style="font-size:11px;fill:#6f6f6f; font-family: 'Source Sans Pro', sans-serif">8,000</text><text transform="translate(80.626 171.205)" style="font-size:11px;fill:#6f6f6f; font-family: 'Source Sans Pro', sans-serif">7,000</text><text transform="translate(80.626 214.205)" style="font-size:11px;fill:#6f6f6f; font-family: 'Source Sans Pro', sans-serif">6,000</text><text transform="translate(80.626 257.95)" style="font-size:11px;fill:#6f6f6f; font-family: 'Source Sans Pro', sans-serif">5,000</text><text transform="translate(80.626 304.45)" style="font-size:11px;fill:#6f6f6f; font-family: 'Source Sans Pro', sans-serif">4,000</text><text transform="translate(80.626 394.45)" style="font-size:11px;fill:#6f6f6f; font-family: 'Source Sans Pro', sans-serif">2,000</text><text transform="translate(80.626 434.95)" style="font-size:11px;fill:#6f6f6f; font-family: 'Source Sans Pro', sans-serif">1,000</text><text transform="translate(37.375 339.099) rotate(-90)" style="font-size:18px;fill:#111;font-family:SourceSansPro-Bold, Source Sans Pro;font-weight:700"><tspan style="letter-spacing:-0.039984809027777776em">A</tspan><tspan x="9.594" y="0">TFM delay per flight</tspan></text><text transform="translate(57.726 313.659) rotate(-90)" style="font-size:16px;fill:#6f6f6f; font-family: 'Source Sans Pro', sans-serif">Minu<tspan x="33.023" y="0" style="letter-spacing:-0.010009765625em">t</tspan><tspan x="38.271" y="0">es per flight</tspan></text><line x1="112" y1="36.968" x2="727" y2="36.968" style="fill:none;stroke:#d3d3d3;stroke-miterlimit:10"/><line x1="112" y1="80.818" x2="727" y2="80.818" style="fill:none;stroke:#d3d3d3;stroke-miterlimit:10"/><line x1="112" y1="168.518" x2="727" y2="168.518" style="fill:none;stroke:#d3d3d3;stroke-miterlimit:10"/><line x1="112" y1="256.218" x2="727" y2="256.218" style="fill:none;stroke:#d3d3d3;stroke-miterlimit:10"/><line x1="113" y1="124.668" x2="727" y2="124.668" style="fill:none;stroke:#d3d3d3;stroke-miterlimit:10"/><line x1="112" y1="212.368" x2="727" y2="212.368" style="fill:none;stroke:#d3d3d3;stroke-miterlimit:10"/><line x1="112" y1="300.068" x2="727" y2="300.068" style="fill:none;stroke:#d3d3d3;stroke-miterlimit:10"/><line x1="112" y1="343.918" x2="727" y2="343.918" style="fill:none;stroke:#d3d3d3;stroke-miterlimit:10"/><line x1="112" y1="387.768" x2="727" y2="387.768" style="fill:none;stroke:#d3d3d3;stroke-miterlimit:10"/><line x1="112" y1="431.618" x2="727" y2="431.618" style="fill:none;stroke:#d3d3d3;stroke-miterlimit:10"/><line x1="112" y1="475.468" x2="727" y2="475.468" style="fill:none;stroke:#d3d3d3;stroke-miterlimit:10"/><text transform="translate(203.035 528.95)" style="font-size:14px;fill:#6f6f6f;font-family:SourceSansPro-Bold, Source Sans Pro;font-weight:700">LE - S<tspan x="33.179" y="0" style="letter-spacing:-0.010986328125em">p</tspan><tspan x="41.047" y="0">ain</tspan></text><text transform="translate(393.56 528.95)" style="font-size:14px;fill:#6f6f6f;font-family:SourceSansPro-Bold, Source Sans Pro;font-weight:700">LF - <tspan x="25.059" y="0" style="letter-spacing:-0.019984654017857144em">F</tspan><tspan x="32.115" y="0" style="letter-spacing:-0.028982979910714284em">r</tspan><tspan x="37.281" y="0">an</tspan><tspan x="52.765" y="0" style="letter-spacing:-0.028006417410714284em">c</tspan><tspan x="58.911" y="0">e</tspan></text><text transform="translate(582.361 528.95)" style="font-size:14px;fill:#6f6f6f;font-family:SourceSansPro-Bold, Source Sans Pro;font-weight:700">LP - <tspan x="26.208" y="0" style="letter-spacing:-0.021030970982142856em">P</tspan><tspan x="34.397" y="0">ortu</tspan><tspan x="61.053" y="0" style="letter-spacing:-0.019008091517857144em">g</tspan><tspan x="68.263" y="0">al</tspan></text><text transform="translate(759.733 169.682)" style="font-size:14px;fill:#111; font-family: 'Source Sans Pro', sans-serif">Disruptions (non-<tspan x="101.778" y="0" style="letter-spacing:-0.040004185267857144em">A</tspan><tspan x="108.834" y="0" style="letter-spacing:-0.023960658482142856em">T</tspan><tspan x="116.002" y="0" style="letter-spacing:-0.00003487723214285714em">C)</tspan></text><circle cx="747.341" cy="165.873" r="7.931" style="fill:#1678b6"/><text transform="translate(759.733 148.523)" style="font-size:14px;fill:#111; font-family: 'Source Sans Pro', sans-serif">Ca<tspan x="15.162" y="0"  >p</tspan><tspan x="22.736" y="0">acity (</tspan><tspan x="58.071" y="0" style="letter-spacing:-0.03996930803571429em">A</tspan><tspan x="65.127" y="0" style="letter-spacing:-0.023995535714285716em">T</tspan><tspan x="72.295" y="0">C)</tspan></text><circle cx="747.341" cy="144.5" r="7.931" style="fill:#f27f30"/><text transform="translate(759.733 127.364)" style="font-size:14px;fill:#111; font-family: 'Source Sans Pro', sans-serif">W<tspan x="11.004" y="0" style="letter-spacing:-0.013985770089285714em">e</tspan><tspan x="17.752" y="0">ather</tspan></text><circle cx="747.341" cy="123.127" r="7.931" style="fill:#22a24e"/><text transform="translate(759.733 106.205)" style="font-size:14px;fill:#111; font-family: 'Source Sans Pro', sans-serif">Ca<tspan x="15.162" y="0"  >p</tspan><tspan x="22.736" y="0">acity (non-</tspan><tspan x="85.329" y="0" style="letter-spacing:-0.040004185267857144em">A</tspan><tspan x="92.385" y="0" style="letter-spacing:-0.023960658482142856em">T</tspan><tspan x="99.553" y="0" style="letter-spacing:-0.00003487723214285714em">C)</tspan></text><circle cx="747.341" cy="101.754" r="7.931" style="fill:#d7292e"/><text transform="translate(759.733 85.046)" style="font-size:14px;fill:#111; font-family: 'Source Sans Pro', sans-serif">E<tspan x="7.378" y="0" style="letter-spacing:-0.004010881696428571em">v</tspan><tspan x="13.86" y="0">ents</tspan></text><circle cx="747.341" cy="80.381" r="7.931" style="fill:#9268aa"/><text transform="translate(759.733 63.887)" style="font-size:14px;fill:#111; font-family: 'Source Sans Pro', sans-serif">S<tspan x="7.476" y="0" style="letter-spacing:-0.017996651785714284em">t</tspan><tspan x="11.956" y="0">affing (</tspan><tspan x="52.387" y="0" style="letter-spacing:-0.03996930803571429em">A</tspan><tspan x="59.443" y="0" style="letter-spacing:-0.023995535714285716em">T</tspan><tspan x="66.611" y="0">C)</tspan></text><circle cx="747.341" cy="59.008" r="7.931" style="fill:#8e574b"/><text transform="translate(759.753 42.499) rotate(0.259)" style="font-size:14px;fill:#111; font-family: 'Source Sans Pro', sans-serif">Disruptions (<tspan x="74.521" y="0" style="letter-spacing:-0.03996930803571429em">A</tspan><tspan x="81.577" y="0" style="letter-spacing:-0.023995535714285716em">T</tspan><tspan x="88.745" y="0">C)</tspan></text><circle cx="747.341" cy="37.635" r="7.931" style="fill:#d67ab0"/><rect x="176.768" y="333.505" width="52.858" height="59.636" style="fill:#22a24e"/><rect x="176.768" y="329.088" width="52.858" height="4.417" style="fill:#d7292e"/><rect x="176.768" y="280.496" width="52.858" height="48.592" style="fill:#9268aa"/><rect x="176.768" y="218.651" width="52.858" height="61.844" style="fill:#8e574b"/><rect x="176.768" y="410.369" width="52.858" height="64.937" style="fill:#1678b6"/><rect x="176.768" y="393.583" width="52.858" height="16.786" style="fill:#f27f30"/><rect x="176.768" y="145.475" width="52.858" height="73.176" style="fill:#d67ab0"/><rect x="247.083" y="269.056" width="52.858" height="55.657" style="fill:#22a24e"/><rect x="247.083" y="206.724" width="52.858" height="62.332" style="fill:#d7292e"/><rect x="247.083" y="184.23" width="52.858" height="22.494" style="fill:#9268aa"/><rect x="247.083" y="144.03" width="52.858" height="40.2" style="fill:#8e574b"/><rect x="247.083" y="392.095" width="52.858" height="83.21" style="fill:#1678b6"/><rect x="247.083" y="325.156" width="52.858" height="66.94" style="fill:#f27f30"/><rect x="247.083" y="84.046" width="52.858" height="59.984" style="fill:#d67ab0"/><rect x="365.448" y="328.179" width="52.858" height="16.59" style="fill:#22a24e"/><rect x="365.448" y="241.935" width="52.858" height="86.245" style="fill:#d7292e"/><rect x="365.448" y="198.736" width="52.858" height="43.198" style="fill:#9268aa"/><rect x="365.448" y="180.853" width="52.858" height="17.884" style="fill:#8e574b"/><rect x="365.448" y="416.32" width="52.858" height="58.986" style="fill:#1678b6"/><rect x="365.448" y="345.211" width="52.858" height="71.109" style="fill:#f27f30"/><rect x="365.448" y="151.047" width="52.858" height="29.806" style="fill:#d67ab0"/><rect x="439.228" y="317.296" width="52.858" height="26.389" style="fill:#22a24e"/><rect x="439.228" y="250.086" width="52.858" height="67.211" style="fill:#d7292e"/><rect x="439.228" y="213.1" width="52.858" height="36.986" style="fill:#9268aa"/><rect x="439.228" y="160.923" width="52.858" height="52.177" style="fill:#8e574b"/><rect x="439.228" y="415.235" width="52.858" height="60.07" style="fill:#1678b6"/><rect x="439.228" y="344.127" width="52.858" height="71.109" style="fill:#f27f30"/><rect x="439.228" y="89.336" width="52.858" height="71.587" style="fill:#d67ab0"/><rect x="560.508" y="286.943" width="52.858" height="56.742" style="fill:#22a24e"/><rect x="560.508" y="267.159" width="52.858" height="19.784" style="fill:#d7292e"/><rect x="560.508" y="209.705" width="52.858" height="57.454" style="fill:#9268aa"/><rect x="560.508" y="182.333" width="52.858" height="27.372" style="fill:#8e574b"/><rect x="560.508" y="386.946" width="52.858" height="88.359" style="fill:#1678b6"/><rect x="560.508" y="344.127" width="52.858" height="42.819" style="fill:#f27f30"/><rect x="560.508" y="127.047" width="52.858" height="55.286" style="fill:#d67ab0"/><rect x="633.142" y="321.41" width="52.858" height="63.001" style="fill:#22a24e"/><rect x="633.142" y="264.625" width="52.858" height="56.785" style="fill:#d7292e"/><rect x="633.142" y="209.705" width="52.858" height="54.92" style="fill:#9268aa"/><rect x="633.142" y="188.259" width="52.858" height="21.446" style="fill:#8e574b"/><rect x="633.142" y="460.826" width="52.858" height="14.479" style="fill:#1678b6"/><rect x="633.142" y="384.852" width="52.858" height="75.974" style="fill:#f27f30"/><rect x="633.142" y="150.272" width="52.858" height="37.987" style="fill:#d67ab0"/><text transform="translate(176.534 491.271)" style="font-size:12px;fill:#6f6f6f; font-family: 'Source Sans Pro', sans-serif">Jan 2016 - <tspan x="4.122" y="15">Dec 2016</tspan></text><text transform="translate(246.849 491.271)" style="font-size:12px;fill:#6f6f6f; font-family: 'Source Sans Pro', sans-serif">Jan 2017 - <tspan x="4.122" y="15">Dec 2017</tspan></text><text transform="translate(365.214 491.271)" style="font-size:12px;fill:#6f6f6f; font-family: 'Source Sans Pro', sans-serif">Jan 2016 - <tspan x="4.122" y="15">Dec 2016</tspan></text><text transform="translate(438.994 491.271)" style="font-size:12px;fill:#6f6f6f; font-family: 'Source Sans Pro', sans-serif">Jan 2017 - <tspan x="4.122" y="15">Dec 2017</tspan></text><text transform="translate(562.214 491.271)" style="font-size:12px;fill:#6f6f6f; font-family: 'Source Sans Pro', sans-serif">Jan 2016 - <tspan x="4.122" y="15">Dec 2016</tspan></text><text transform="translate(635.994 491.271)" style="font-size:12px;fill:#6f6f6f; font-family: 'Source Sans Pro', sans-serif">Jan 2017 - <tspan x="4.122" y="15">Dec 2017</tspan></text><line x1="140.333" y1="475.22" x2="140.333" y2="485.547" style="fill:none;stroke:#d3d3d3;stroke-miterlimit:10"/><line x1="335.444" y1="475.22" x2="335.444" y2="485.547" style="fill:none;stroke:#d3d3d3;stroke-miterlimit:10"/><line x1="530.556" y1="475.22" x2="530.556" y2="485.547" style="fill:none;stroke:#d3d3d3;stroke-miterlimit:10"/><line x1="725.667" y1="475.22" x2="725.667" y2="485.547" style="fill:none;stroke:#d3d3d3;stroke-miterlimit:10"/></g></g></svg>