<svg xmlns="http://www.w3.org/2000/svg" viewBox="0 0 16.858 15.423"><title>icon-pru-radar-active</title><g id="Capa_2" data-name="Capa 2"><g id="Guides"><path d="M12.651,15.423H4.206L0,7.712,4.206,0h8.445l4.207,7.712ZM4.6,14.753h7.649l3.841-7.041L12.253.671H4.6L.764,7.712Z" style="fill:#4f81bd"/><path d="M11.042,12.49H5.815l-2.6-4.778,2.6-4.778h5.227l2.6,4.778Zm-4.828-.671h4.43l2.232-4.107L10.644,3.6H6.214L3.982,7.712Z" style="fill:#4f81bd"/><rect x="6.24" y="3.689" width="8.403" height="0.671" transform="translate(1.908 11.263) rotate(-61.387)" style="fill:#4f81bd"/><rect x="8.429" y="7.376" width="8.047" height="0.671" style="fill:#4f81bd"/><rect x="10.106" y="7.199" width="0.671" height="8.403" transform="translate(-4.185 6.392) rotate(-28.613)" style="fill:#4f81bd"/><rect x="2.216" y="11.065" width="8.403" height="0.671" transform="translate(-6.664 11.574) rotate(-61.387)" style="fill:#4f81bd"/><rect x="0.382" y="7.376" width="8.047" height="0.671" style="fill:#4f81bd"/><rect x="6.082" y="-0.177" width="0.671" height="8.403" transform="translate(-1.143 3.565) rotate(-28.613)" style="fill:#4f81bd"/></g></g></svg>