<svg xmlns="http://www.w3.org/2000/svg" viewBox="0 0 12.756 13.917"><title>icon-temporal</title><g id="Capa_2" data-name="Capa 2"><g id="Capa_1-2" data-name="Capa 1"><path d="M12.265,1.74a.439.439,0,0,1,.491.435V4.349H0V2.175A.439.439,0,0,1,.491,1.74H1.962V3.479h.982V1.74H9.812V3.479h.981V1.74Zm-10.3,0h.982V0H1.962Zm7.85,0h.981V0H9.812ZM.981,13.047H3.925V11.308H.981Zm0-2.609H3.925V8.7H.981Zm0-2.61H3.925V6.089H.981Zm3.925,5.219H7.85V11.308H4.906Zm0-2.609H7.85V8.7H4.906Zm0-2.61H7.85V6.089H4.906Zm3.925,5.219h2.944V11.308H8.831Zm0-2.609h2.944V8.7H8.831Zm0-2.61h2.944V6.089H8.831ZM0,5.219H12.756v7.828a.933.933,0,0,1-.981.87H.981A.933.933,0,0,1,0,13.047Z" style="fill:#5082be"/></g></g></svg>