<svg xmlns="http://www.w3.org/2000/svg" viewBox="0 0 10.947 14.411"><title>icon-heatmap-active</title><g id="Capa_2" data-name="Capa 2"><g id="Guides"><path d="M5.337,2.894A2.465,2.465,0,1,0,7.8,5.358,2.468,2.468,0,0,0,5.337,2.894Z" style="fill:#4f81bd"/><path d="M9.9,2.279A5.524,5.524,0,0,0,5.829,0H5.108A5.5,5.5,0,0,0,.956,2.4,4.871,4.871,0,0,0,.2,6.639a16.118,16.118,0,0,0,2.1,3.929c.269.385.563.784.924,1.257.242.316.5.648.843,1.078l.324.41c.258.326.516.652.768.979a.309.309,0,0,0,.243.119h.15a.307.307,0,0,0,.246-.122c.324-.431.666-.868,1-1.29l.181-.23c.25-.319.5-.638.747-.961.368-.479.66-.875.919-1.244a15.445,15.445,0,0,0,2.162-4.1l.006-.02A4.978,4.978,0,0,0,9.9,2.279Zm.319,4a14.926,14.926,0,0,1-2.078,3.932c-.254.362-.542.75-.9,1.224-.245.32-.494.637-.743.954l-.18.231c-.277.352-.561.715-.837,1.077-.2-.255-.4-.51-.6-.766l-.324-.409c-.339-.428-.6-.758-.837-1.071-.356-.465-.645-.858-.908-1.235A15.557,15.557,0,0,1,.781,6.447a4.261,4.261,0,0,1,.678-3.7A4.887,4.887,0,0,1,5.131.613h.674a4.9,4.9,0,0,1,3.6,2.031A4.368,4.368,0,0,1,10.219,6.28Z" style="fill:#4f81bd"/></g></g></svg>