<svg xmlns="http://www.w3.org/2000/svg" viewBox="0 0 12.756 12.757"><title>icon-airspace</title><g id="Capa_2" data-name="Capa 2"><g id="Capa_1-2" data-name="Capa 1"><path d="M.05,8.831a.157.157,0,0,0-.042.07.171.171,0,0,0,.113.214l2.7.821.822,2.7a.169.169,0,0,0,.122.115.14.14,0,0,0,.041.006.167.167,0,0,0,.121-.051l.687-.686a.175.175,0,0,0,.049-.144l-.37-1.993,0-.019,2.55-2.55,2.4,4.774a.272.272,0,0,0,.051.071.285.285,0,0,0,.4,0l.774-.775a.48.48,0,0,0,.131-.435L9.456,5.282a.929.929,0,0,1,.254-.84L12.2,1.95a1.663,1.663,0,0,0,.467-.907L12.75.559a.474.474,0,0,0,.006-.075A.481.481,0,0,0,12.277,0L12.2.007l-.482.08a1.663,1.663,0,0,0-.909.468L8.314,3.046a.937.937,0,0,1-.657.272A.859.859,0,0,1,7.475,3.3L1.8,2.163a.423.423,0,0,0-.094-.01.482.482,0,0,0-.34.141L.6,3.068a.272.272,0,0,0-.053.074.283.283,0,0,0,.126.381l4.774,2.4L2.892,8.467l-.02,0S.865,8.094.857,8.094a.172.172,0,0,0-.121.05L.05,8.831Z" style="fill:#5082be"/></g></g></svg>