<svg xmlns="http://www.w3.org/2000/svg" viewBox="0 0 12.756 15.945"><title>icon-kpi</title><g id="Capa_2" data-name="Capa 2"><g id="Capa_1-2" data-name="Capa 1"><path d="M11.161,0H3.986L0,3.986V14.35a1.6,1.6,0,0,0,1.594,1.6h9.567a1.6,1.6,0,0,0,1.6-1.6V1.594A1.6,1.6,0,0,0,11.161,0ZM1.2,4.783,4.783,1.2V4.783Zm9.168,2.392a.779.779,0,0,1-.109-.022l-2.34,2.925a.8.8,0,1,1-1.537.286c0-.016.008-.03.009-.046L5.13,9.48a.782.782,0,0,1-.347.087A.658.658,0,0,1,4.7,9.549l-1.572,2.1a.8.8,0,1,1-.733-.485.82.82,0,0,1,.086.018l1.573-2.1a.783.783,0,0,1-.065-.313.8.8,0,1,1,1.6,0c0,.016-.009.03-.01.046l1.258.838a.774.774,0,0,1,.346-.087.824.824,0,0,1,.11.022l2.34-2.925a.781.781,0,0,1-.058-.286.8.8,0,1,1,.8.8Z" style="fill:#5082be"/></g></g></svg>